<svg width="24" height="24" viewBox="0 0 24 24" fill="none" xmlns="http://www.w3.org/2000/svg">
  <mask id="mask0_132_1841" style="mask-type:alpha" maskUnits="userSpaceOnUse" x="0" y="0" width="24" height="24">
  <rect width="24" height="24" fill="#D9D9D9"/>
  </mask>
  <g mask="url(#mask0_132_1841)">
  <path d="M12 16.9L9.6 19.3C9.41667 19.4833 9.18334 19.575 8.9 19.575C8.61667 19.575 8.38334 19.4833 8.2 19.3C8.01667 19.1167 7.925 18.8833 7.925 18.6C7.925 18.3167 8.01667 18.0833 8.2 17.9L11.3 14.8C11.4 14.7 11.5083 14.6292 11.625 14.5875C11.7417 14.5458 11.8667 14.525 12 14.525C12.1333 14.525 12.2583 14.5458 12.375 14.5875C12.4917 14.6292 12.6 14.7 12.7 14.8L15.8 17.9C15.9833 18.0833 16.075 18.3167 16.075 18.6C16.075 18.8833 15.9833 19.1167 15.8 19.3C15.6167 19.4833 15.3833 19.575 15.1 19.575C14.8167 19.575 14.5833 19.4833 14.4 19.3L12 16.9ZM12 7.09999L14.4 4.69999C14.5833 4.51665 14.8167 4.42499 15.1 4.42499C15.3833 4.42499 15.6167 4.51665 15.8 4.69999C15.9833 4.88332 16.075 5.11665 16.075 5.39999C16.075 5.68332 15.9833 5.91665 15.8 6.09999L12.7 9.19999C12.6 9.29999 12.4917 9.37082 12.375 9.41249C12.2583 9.45415 12.1333 9.47499 12 9.47499C11.8667 9.47499 11.7417 9.45415 11.625 9.41249C11.5083 9.37082 11.4 9.29999 11.3 9.19999L8.2 6.09999C8.01667 5.91665 7.925 5.68332 7.925 5.39999C7.925 5.11665 8.01667 4.88332 8.2 4.69999C8.38334 4.51665 8.61667 4.42499 8.9 4.42499C9.18334 4.42499 9.41667 4.51665 9.6 4.69999L12 7.09999Z" fill="#1C1B1F"/>
  </g>
</svg>
  
