<svg width="24" height="24" viewBox="0 0 24 24" fill="none" xmlns="http://www.w3.org/2000/svg">
  <mask id="mask0_132_2097" style="mask-type:alpha" maskUnits="userSpaceOnUse" x="0" y="0" width="24" height="24">
    <rect width="24" height="24" fill="#D9D9D9"/>
  </mask>
  <g mask="url(#mask0_132_2097)">
    <path d="M5.75 15H8C8.21667 15 8.39583 14.9292 8.5375 14.7875C8.67917 14.6458 8.75 14.4667 8.75 14.25C8.75 14.0333 8.67917 13.8542 8.5375 13.7125C8.39583 13.5708 8.21667 13.5 8 13.5H6.25V10.5H8C8.21667 10.5 8.39583 10.4292 8.5375 10.2875C8.67917 10.1458 8.75 9.96667 8.75 9.75C8.75 9.53333 8.67917 9.35417 8.5375 9.2125C8.39583 9.07083 8.21667 9 8 9H5.75C5.46667 9 5.22917 9.09583 5.0375 9.2875C4.84583 9.47917 4.75 9.71667 4.75 10V14C4.75 14.2833 4.84583 14.5208 5.0375 14.7125C5.22917 14.9042 5.46667 15 5.75 15ZM10.4 15H12.65C12.9333 15 13.1708 14.9042 13.3625 14.7125C13.5542 14.5208 13.65 14.2833 13.65 14V12.5C13.65 12.2167 13.5542 11.9542 13.3625 11.7125C13.1708 11.4708 12.9333 11.35 12.65 11.35H11.15V10.5H12.9C13.1167 10.5 13.2958 10.4292 13.4375 10.2875C13.5792 10.1458 13.65 9.96667 13.65 9.75C13.65 9.53333 13.5792 9.35417 13.4375 9.2125C13.2958 9.07083 13.1167 9 12.9 9H10.65C10.3667 9 10.1292 9.09583 9.9375 9.2875C9.74583 9.47917 9.65 9.71667 9.65 10V11.5C9.65 11.7833 9.74583 12.0375 9.9375 12.2625C10.1292 12.4875 10.3667 12.6 10.65 12.6H12.15V13.5H10.4C10.1833 13.5 10.0042 13.5708 9.8625 13.7125C9.72083 13.8542 9.65 14.0333 9.65 14.25C9.65 14.4667 9.72083 14.6458 9.8625 14.7875C10.0042 14.9292 10.1833 15 10.4 15ZM17 12.45L16.15 9.525C16.1 9.375 16.0125 9.25 15.8875 9.15C15.7625 9.05 15.6167 9 15.45 9C15.2167 9 15.0292 9.09583 14.8875 9.2875C14.7458 9.47917 14.7083 9.69167 14.775 9.925L16.1 14.475C16.15 14.625 16.2375 14.75 16.3625 14.85C16.4875 14.95 16.6333 15 16.8 15H17.2C17.3667 15 17.5125 14.95 17.6375 14.85C17.7625 14.75 17.85 14.625 17.9 14.475L19.225 9.925C19.2917 9.69167 19.2542 9.47917 19.1125 9.2875C18.9708 9.09583 18.7833 9 18.55 9C18.3833 9 18.2375 9.05 18.1125 9.15C17.9875 9.25 17.9 9.375 17.85 9.525L17 12.45ZM4 20C3.45 20 2.97917 19.8042 2.5875 19.4125C2.19583 19.0208 2 18.55 2 18V6C2 5.45 2.19583 4.97917 2.5875 4.5875C2.97917 4.19583 3.45 4 4 4H20C20.55 4 21.0208 4.19583 21.4125 4.5875C21.8042 4.97917 22 5.45 22 6V18C22 18.55 21.8042 19.0208 21.4125 19.4125C21.0208 19.8042 20.55 20 20 20H4ZM4 18H20V6H4V18Z" fill="#1C1B1F"/>
  </g>
</svg>
