<svg width="24" height="24" viewBox="0 0 24 24" fill="none" xmlns="http://www.w3.org/2000/svg">
  <mask id="mask0_35_2020" style="mask-type:alpha" maskUnits="userSpaceOnUse" x="0" y="0" width="24" height="24">
  <rect width="24" height="24" fill="#D9D9D9"/>
  </mask>
  <g mask="url(#mask0_35_2020)">
  <path d="M18.85 9.4L14.6 5.15L16.025 3.725C16.4083 3.34166 16.8792 3.15 17.4375 3.15C17.9958 3.15 18.4667 3.34166 18.85 3.725L20.275 5.15C20.6583 5.53333 20.85 6.00416 20.85 6.5625C20.85 7.12083 20.6583 7.59166 20.275 7.975L18.85 9.4ZM3.00001 21V16.75L7.50001 12.25L2.22501 6.925L6.95001 2.2L12.25 7.525L14.6 5.15L18.85 9.4L16.5 11.75L21.775 17.075L17.075 21.775L11.75 16.475L7.25001 21H3.00001ZM8.92501 10.825L10.825 8.925L9.62501 7.725L8.42501 8.9L7.02501 7.5L8.20001 6.3L6.92501 5.05L5.05001 6.95L8.92501 10.825ZM17.05 18.95L18.95 17.05L17.675 15.8L16.5 16.975L15.075 15.575L16.275 14.375L15.05 13.175L13.15 15.075L17.05 18.95ZM5.00001 19H6.40001L16.025 9.4L14.6 7.975L5.00001 17.6V19Z" fill="#1C1B1F"/>
  </g>
  </svg>
  
