<svg width="24" height="24" viewBox="0 0 24 24" fill="none" xmlns="http://www.w3.org/2000/svg">
  <mask id="mask0_37_4187" style="mask-type:alpha" maskUnits="userSpaceOnUse" x="0" y="0" width="24" height="24">
  <rect width="24" height="24" fill="#D9D9D9"/>
  </mask>
  <g mask="url(#mask0_37_4187)">
  <path d="M6.85 15.25C7.65 15.1667 8.47917 15.1042 9.3375 15.0625C10.1958 15.0208 11.0833 15 12 15C12.9 15 13.7792 15.0208 14.6375 15.0625C15.4958 15.1042 16.3333 15.1667 17.15 15.25C17.4333 15.2833 17.6292 15.2 17.7375 15C17.8458 14.8 17.8083 14.5833 17.625 14.35L14.375 10.45C14.275 10.3333 14.15 10.275 14 10.275C13.85 10.275 13.725 10.3333 13.625 10.45L11.15 13.4L9.525 11.45C9.44167 11.3333 9.32083 11.275 9.1625 11.275C9.00417 11.275 8.875 11.3417 8.775 11.475L6.375 14.35C6.19167 14.5833 6.15 14.8 6.25 15C6.35 15.2 6.55 15.2833 6.85 15.25ZM3 20C2.71667 20 2.47917 19.9042 2.2875 19.7125C2.09583 19.5208 2 19.2833 2 19V5C2 4.71667 2.09583 4.47917 2.2875 4.2875C2.47917 4.09583 2.71667 4 3 4C3.28333 4 4.19167 4.25 5.725 4.75C7.25833 5.25 9.35 5.5 12 5.5C14.6667 5.5 16.7625 5.25 18.2875 4.75C19.8125 4.25 20.7167 4 21 4C21.2833 4 21.5208 4.09583 21.7125 4.2875C21.9042 4.47917 22 4.71667 22 5V19C22 19.2833 21.9042 19.5208 21.7125 19.7125C21.5208 19.9042 21.2833 20 21 20C20.7167 20 19.8125 19.75 18.2875 19.25C16.7625 18.75 14.6667 18.5 12 18.5C9.35 18.5 7.25833 18.75 5.725 19.25C4.19167 19.75 3.28333 20 3 20ZM4 17.65C5.3 17.2667 6.62083 16.9792 7.9625 16.7875C9.30417 16.5958 10.65 16.5 12 16.5C13.35 16.5 14.6958 16.5958 16.0375 16.7875C17.3792 16.9792 18.7 17.2667 20 17.65V6.375C18.7 6.75833 17.3792 7.04167 16.0375 7.225C14.6958 7.40833 13.35 7.5 12 7.5C10.65 7.5 9.30417 7.40833 7.9625 7.225C6.62083 7.04167 5.3 6.75833 4 6.375V17.65Z" fill="#1C1B1F"/>
  </g>
  </svg>
  
