<svg width="24" height="24" viewBox="0 0 24 24" fill="none" xmlns="http://www.w3.org/2000/svg">
  <mask id="mask0_37_7606" style="mask-type:alpha" maskUnits="userSpaceOnUse" x="0" y="0" width="24" height="24">
  <rect width="24" height="24" fill="#D9D9D9"/>
  </mask>
  <g mask="url(#mask0_37_7606)">
  <path d="M12 10.775L8.1 14.675C7.91667 14.8583 7.68334 14.95 7.4 14.95C7.11667 14.95 6.88334 14.8583 6.7 14.675C6.51667 14.4917 6.425 14.2583 6.425 13.975C6.425 13.6917 6.51667 13.4583 6.7 13.275L11.3 8.67499C11.4 8.57499 11.5083 8.50416 11.625 8.46249C11.7417 8.42083 11.8667 8.39999 12 8.39999C12.1333 8.39999 12.2583 8.42083 12.375 8.46249C12.4917 8.50416 12.6 8.57499 12.7 8.67499L17.3 13.275C17.4833 13.4583 17.575 13.6917 17.575 13.975C17.575 14.2583 17.4833 14.4917 17.3 14.675C17.1167 14.8583 16.8833 14.95 16.6 14.95C16.3167 14.95 16.0833 14.8583 15.9 14.675L12 10.775Z" fill="#1C1B1F"/>
  </g>
</svg>
  
