<svg xmlns="http://www.w3.org/2000/svg" width="800" height="800" viewBox="0 0 20 20"><title>ic_fluent_resize_20_regular</title><path fill="#212121" fill-rule="nonzero" d="M2.5 11a.5.5 0 0 1 .5.5V15a2 2 0 0 0 2 2h3.5a.5.5 0 0 1 0 1H5a3 3 0 0 1-3-3v-3.5a.5.5 0 0 1 .5-.5m15 0a.5.5 0 0 1 .492.41l.008.09V15a3 3 0 0 1-2.824 2.995L15 18h-3.5a.5.5 0 0 1-.09-.992L11.5 17H15a2 2 0 0 0 1.995-1.85L17 15v-3.5a.5.5 0 0 1 .5-.5m-9-9a.5.5 0 0 1 .09.992L8.5 3H5a2 2 0 0 0-1.995 1.85L3 5v3.5a.5.5 0 0 1-.992.09L2 8.5V5a3 3 0 0 1 2.824-2.995L5 2zM15 2a3 3 0 0 1 2.995 2.824L18 5v3.5a.5.5 0 0 1-.992.09L17 8.5V5a2 2 0 0 0-1.85-1.995L15 3h-3.5a.5.5 0 0 1-.09-.992L11.5 2z"/></svg>