<?xml version="1.0" encoding="UTF-8" standalone="no"?>
<!-- Created with Inkscape (http://www.inkscape.org/) -->

<svg
   width="264.58334mm"
   height="90.222916mm"
   viewBox="0 0 264.58334 90.222916"
   version="1.1"
   id="svg1"
   xml:space="preserve"
   inkscape:version="1.3.2 (091e20ef0f, 2023-11-25, custom)"
   sodipodi:docname="logo_gg_qf_dark.svg"
   xmlns:inkscape="http://www.inkscape.org/namespaces/inkscape"
   xmlns:sodipodi="http://sodipodi.sourceforge.net/DTD/sodipodi-0.dtd"
   xmlns="http://www.w3.org/2000/svg"
   xmlns:svg="http://www.w3.org/2000/svg"><sodipodi:namedview
     id="namedview1"
     pagecolor="#ffffff"
     bordercolor="#666666"
     borderopacity="1.0"
     inkscape:showpageshadow="2"
     inkscape:pageopacity="0.0"
     inkscape:pagecheckerboard="0"
     inkscape:deskcolor="#d1d1d1"
     inkscape:document-units="mm"
     inkscape:zoom="1.2935185"
     inkscape:cx="428.28919"
     inkscape:cy="94.316392"
     inkscape:window-width="3072"
     inkscape:window-height="1656"
     inkscape:window-x="0"
     inkscape:window-y="0"
     inkscape:window-maximized="1"
     inkscape:current-layer="layer1" /><defs
     id="defs1"><style
       id="style914">.cls-1{fill:#fff;}.cls-2{font-size:46.06px;font-family:Lato-Bold, Lato;font-weight:700;letter-spacing:0.02em;}.cls-2,.cls-3{fill:#4a6fae;}</style></defs><g
     inkscape:label="Ebene 1"
     inkscape:groupmode="layer"
     id="layer1"
     transform="translate(8.346714,-123.55146)"><path
       style="fill:#ffffff"
       d="m -3.8854529,201.2345 v -9.87263 l 2.3777661,-3.42268 c 1.30777127,-1.88247 2.3815554,-3.60127 2.3861869,-3.81955 0.004632,-0.21828 -0.66464603,-2.55071 -1.48728339,-5.18318 l -1.49570431,-4.78631 0.8571981,-2.22515 c 0.47145896,-1.22383 1.4485283,-3.74361 2.17126521,-5.59952 l 1.31406709,-3.37437 9.1206792,-5.44227 9.120679,-5.44228 0.71601,-1.48395 c 0.709111,-1.46964 0.820541,-1.55747 11.563927,-9.11391 5.966354,-4.19648 11.830183,-8.33914 13.030729,-9.20591 l 2.182813,-1.57595 v -2.00472 -2.00471 l 1.389062,0.08 1.389063,0.08 0.07761,2.06933 0.07761,2.06933 3.847834,4.66572 3.847833,4.66572 -0.882739,0.73184 c -0.485507,0.40251 -0.943474,0.70549 -1.017706,0.67328 -0.07423,-0.0322 -2.016871,-1.05279 -4.316977,-2.26796 -2.300106,-1.21518 -4.214889,-2.16768 -4.255073,-2.11667 -0.04018,0.051 -5.325185,6.41777 -11.744447,14.14836 l -11.671386,14.05562 0.497418,4.33292 0.497418,4.33293 -0.929171,3.73054 -0.92917,3.73054 2.629302,4.86842 2.629301,4.86841 0.706361,9.12813 c 0.388498,5.02047 0.703883,9.46239 0.700855,9.87094 -0.0052,0.70765 -0.05778,0.73897 -1.109749,0.66146 l -1.104244,-0.0814 -1.56095,-8.59896 -1.560951,-8.59896 -1.320495,-2.30995 c -0.726272,-1.27048 -1.424294,-2.37411 -1.55116,-2.45252 -0.329002,-0.20334 -0.456511,1.07325 -1.057089,10.58331 -0.294078,4.65666 -0.604955,9.15127 -0.690839,9.98802 l -0.156153,1.52135 h -1.262983 -1.262984 l -0.161503,-3.37343 c -0.431205,-9.00688 -0.46842,-20.04628 -0.07782,-23.0849 l 0.391122,-3.04271 -1.318236,-2.18281 c -0.72503,-1.20055 -1.413383,-2.18281 -1.529673,-2.18281 -0.247658,0 -5.3188642,6.12014 -7.4540308,8.99583 -3.9894524,5.37308 -5.2234642,7.10646 -5.7481536,8.07425 -0.4726022,0.87172 -0.7087626,2.35758 -1.36631759,8.59653 -0.43722758,4.14846 -0.79495924,7.69057 -0.79495924,7.87135 0,0.23058 -0.55290503,0.3287 -1.85208327,0.3287 H -3.8854529 Z M 52.206213,134.66146 c 0,-0.37738 -0.785795,-1.07723 -1.209524,-1.07723 -0.382265,0 -0.526691,0.82142 -0.201587,1.14652 0.267219,0.26722 1.411111,0.21105 1.411111,-0.0693 z M 9.6394955,210.51183 C 9.091374,209.03057 4.347035,194.78751 4.2703292,194.39297 c -0.08427,-0.43345 4.7493872,-7.59748 5.1395303,-7.61738 0.1091406,-0.006 0.1984375,2.55202 0.1984375,5.68351 v 5.69362 l 1.852083,6.24486 c 1.018646,3.43468 1.852084,6.34942 1.852084,6.47721 0,0.1278 -0.776854,0.23235 -1.726341,0.23235 -1.548619,0 -1.7490178,-0.0613 -1.9466275,-0.59531 z"
       id="path2" /><g
       id="text920"
       style="font-style:normal;font-variant:normal;font-weight:normal;font-stretch:normal;font-size:292.272px;font-family:lato;-inkscape-font-specification:lato;letter-spacing:0.02em;fill:#ffffff;stroke-width:6.34547"
       aria-label="QFieldCloud"
       transform="matrix(0.11073493,0,0,0.11073493,57.309781,125.70206)"><g
         id="g1"
         transform="matrix(1.2280632,0,0,1.2280632,-40.736776,24.637412)"
         style="fill:#ffffff"><path
           id="path829"
           style="font-style:normal;font-variant:normal;font-weight:bold;font-stretch:normal;font-family:Lato;-inkscape-font-specification:Lato;fill:#ffffff"
           d="m 413.8095,150.1462 q 0,14.17521 -2.92272,27.18133 -2.92273,12.85998 -8.4759,24.11247 -5.40704,11.25248 -13.29839,20.75134 -7.89136,9.35271 -17.97475,16.51338 l 53.63198,58.45448 h -32.44224 q -7.01453,0 -12.71385,-1.89977 -5.55317,-1.89977 -10.22953,-7.01454 l -30.98087,-34.19587 q -7.45295,2.04591 -15.3443,3.06886 -7.74522,1.02296 -16.22112,1.02296 -23.96633,0 -43.84085,-8.03749 -19.72839,-8.18363 -33.9036,-22.65111 -14.02907,-14.46748 -21.77429,-34.19587 -7.74522,-19.87452 -7.74522,-43.11017 0,-23.23566 7.74522,-42.96404 7.74522,-19.874523 21.77429,-34.342005 14.17521,-14.467482 33.9036,-22.504973 19.87452,-8.183626 43.84085,-8.183626 23.96634,0 43.69472,8.183626 19.72839,8.183627 33.75746,22.651109 14.02908,14.321346 21.77429,34.195869 7.74522,19.72838 7.74522,42.96404 z m -40.33359,0 q 0,-17.39021 -4.67635,-31.12701 -4.53023,-13.88294 -13.15226,-23.527927 -8.62204,-9.644988 -21.04361,-14.759754 -12.27544,-5.114767 -27.76588,-5.114767 -15.49043,0 -27.91201,5.114767 -12.42157,5.114766 -21.18974,14.759754 -8.62204,9.644987 -13.2984,23.527927 -4.67635,13.7368 -4.67635,31.12701 0,17.3902 4.67635,31.27314 4.67636,13.7368 13.2984,23.38179 8.76817,9.49885 21.18974,14.61362 12.42158,5.11476 27.91201,5.11476 15.49044,0 27.76588,-5.11476 12.42157,-5.11477 21.04361,-14.61362 8.62203,-9.64499 13.15226,-23.38179 4.67635,-13.88294 4.67635,-31.27314 z" /><path
           id="path831"
           style="font-style:normal;font-variant:normal;font-weight:bold;font-stretch:normal;font-family:Lato;-inkscape-font-specification:Lato;fill:#ffffff"
           d="m 583.91187,44.489735 v 31.273144 h -93.67329 v 62.546291 h 79.05967 v 31.41928 h -79.05967 v 86.07421 H 450.63567 V 44.489735 Z" /><path
           id="path833"
           style="font-style:normal;font-variant:normal;font-weight:bold;font-stretch:normal;font-family:Lato;-inkscape-font-specification:Lato;fill:#ffffff"
           d="M 656.97958,105.86693 V 255.80266 H 620.88394 V 105.86693 Z m 5.40703,-43.694717 q 0,4.676358 -1.89977,8.768171 -1.89977,4.091814 -5.11476,7.160673 -3.06886,3.06886 -7.30681,4.968631 -4.23795,1.753634 -9.06044,1.753634 -4.67636,0 -8.91431,-1.753634 -4.09182,-1.899771 -7.16067,-4.968631 -3.06886,-3.068859 -4.96864,-7.160673 -1.75363,-4.091813 -1.75363,-8.768171 0,-4.822494 1.75363,-9.060443 1.89978,-4.237949 4.96864,-7.306809 3.06885,-3.06886 7.16067,-4.822494 4.23795,-1.899771 8.91431,-1.899771 4.82249,0 9.06044,1.899771 4.23795,1.753634 7.30681,4.822494 3.21499,3.06886 5.11476,7.306809 1.89977,4.237949 1.89977,9.060443 z" /><path
           id="path835"
           style="font-style:normal;font-variant:normal;font-weight:bold;font-stretch:normal;font-family:Lato;-inkscape-font-specification:Lato;fill:#ffffff"
           d="m 765.55874,103.52875 q 14.17521,0 26.01224,4.53023 11.98317,4.53022 20.6052,13.29839 8.62204,8.62203 13.44453,21.33588 4.8225,12.56771 4.8225,28.78883 0,4.09181 -0.43841,6.8684 -0.29227,2.63045 -1.31523,4.23795 -0.87681,1.46136 -2.48431,2.19204 -1.6075,0.58455 -4.09182,0.58455 H 729.4631 q 1.6075,23.08951 12.42158,33.90359 10.81408,10.81408 28.64269,10.81408 8.76817,0 15.05203,-2.04591 6.42999,-2.0459 11.10635,-4.53022 4.82249,-2.48431 8.32976,-4.53022 3.65341,-2.04591 7.01454,-2.04591 2.19204,0 3.79954,0.87682 1.6075,0.87682 2.77659,2.48432 l 10.5218,13.15225 q -5.99158,7.01454 -13.44453,11.83703 -7.45294,4.67636 -15.63657,7.59908 -8.03749,2.77659 -16.51339,3.94568 -8.32976,1.16909 -16.22112,1.16909 -15.63657,0 -29.0811,-5.11477 -13.44452,-5.2609 -23.38179,-15.3443 -9.93726,-10.22953 -15.63657,-25.13542 -5.69931,-15.05203 -5.69931,-34.78041 0,-15.3443 4.96863,-28.78883 4.96863,-13.59066 14.17521,-23.52792 9.35272,-10.0834 22.65111,-15.92885 13.44453,-5.84545 30.25019,-5.84545 z m 0.73068,25.86611 q -15.78271,0 -24.69701,8.91431 -8.91431,8.9143 -11.39863,25.28156 h 67.80719 q 0,-7.01454 -1.89977,-13.15226 -1.89977,-6.28386 -5.84544,-10.96021 -3.94568,-4.67636 -9.93726,-7.30681 -5.99159,-2.77659 -14.02908,-2.77659 z" /><path
           id="path837"
           style="font-style:normal;font-variant:normal;font-weight:bold;font-stretch:normal;font-family:Lato;-inkscape-font-specification:Lato;fill:#ffffff"
           d="M 904.09533,38.644288 V 255.80266 H 867.99969 V 38.644288 Z" /><path
           id="path839"
           style="font-style:normal;font-variant:normal;font-weight:bold;font-stretch:normal;font-family:Lato;-inkscape-font-specification:Lato;fill:#ffffff"
           d="m 1056.223,255.80266 q -7.0145,0 -9.2065,-6.57613 l -2.9228,-14.46748 q -4.6763,5.2609 -9.7911,9.49885 -5.1147,4.23795 -11.1063,7.30681 -5.8455,3.06886 -12.7139,4.67636 -6.7222,1.75363 -14.6136,1.75363 -12.27544,0 -22.50497,-5.11477 -10.22953,-5.11476 -17.68248,-14.75975 -7.30681,-9.79112 -11.39862,-24.11247 -3.94568,-14.32135 -3.94568,-32.73451 0,-16.65952 4.53022,-30.98087 4.53023,-14.32134 13.00612,-24.84315 8.4759,-10.5218 20.31293,-16.36725 11.83703,-5.99158 26.59678,-5.99158 12.5677,0 21.482,4.09181 8.9143,3.94568 15.9289,10.66794 V 38.644288 h 36.0956 V 255.80266 Z m -48.0788,-26.45065 q 11.2525,0 19.1439,-4.67636 7.8913,-4.67636 14.9059,-13.29839 v -67.22265 q -6.1377,-7.45294 -13.4446,-10.5218 -7.1606,-3.06886 -15.4904,-3.06886 -8.1836,0 -14.90588,3.06886 -6.57613,3.06886 -11.25249,9.35271 -4.53022,6.13772 -7.01454,15.78271 -2.48431,9.49885 -2.48431,22.50497 0,13.15226 2.04591,22.35884 2.19204,9.06044 6.13772,14.90589 3.94567,5.69931 9.64498,8.32976 5.69931,2.48432 12.71381,2.48432 z" /></g></g><g
       transform="matrix(0.26458333,0,0,0.26458333,153.23235,110.62061)"
       id="g1069"
       style="fill:#ffffff"><path
         style="fill:#ffffff"
         class="cls-3"
         d="m 291.36,249.43 a 11.92,11.92 0 1 0 -11.91,11.91 11.92,11.92 0 0 0 11.91,-11.91 z"
         id="path922"
         transform="translate(-11.68,-52.69)" /><path
         style="fill:#ffffff"
         class="cls-3"
         d="m 310.67,249.43 a 11.92,11.92 0 1 0 11.92,-11.92 11.92,11.92 0 0 0 -11.92,11.92 z"
         id="path924"
         transform="translate(-11.68,-52.69)" /><path
         style="fill:#ffffff"
         class="cls-3"
         d="m 213.49,293.66 a 94.53,94.53 0 0 0 14.4,24.52 95.82,95.82 0 0 0 72.67,34 98.34,98.34 0 0 0 68.63,-28.38 94.44,94.44 0 0 0 21.65,-36.62 3.2,3.2 0 0 0 -4.62,-3.75 53.57,53.57 0 1 1 -37.37,-99.1 3.2,3.2 0 0 0 1,-5.86 93.5,93.5 0 0 0 -29.22,-11.58 c -3,-13.37 -7.53,-21.21 -11.6,-28.12 a 270.52,270.52 0 0 0 -15.44,-22.3 19.34,19.34 0 0 0 -8.47,-8.23 c -8,-4.12 -17.1,-2.52 -20.23,3.58 -3.13,6.1 0.85,14.39 8.89,18.52 0.47,0.24 0.94,0.46 1.42,0.66 v 0 a 20.41,20.41 0 0 0 5.52,1.48 37.81,37.81 0 0 1 13,7.71 c 4.28,3.96 12.28,17.71 13.28,24.86 -2,-0.12 -4,-0.19 -6,-0.19 q -4.23,0 -8.41,0.38 c -8,-10.49 -14.87,-17.78 -21.31,-23.15 -7,-5.81 -16.45,-12.32 -19.9,-14 v 0 a 19.68,19.68 0 0 0 -10.4,-2.83 c -9,0 -16.36,5.56 -16.36,12.42 0,6.86 7.38,12.43 16.38,12.43 a 22,22 0 0 0 3.94,-0.37 v 0 H 245 a 19,19 0 0 0 3.8,-1.11 18.56,18.56 0 0 1 8.56,0 c 5.64,1.55 22.23,13.7 20.8,19.08 a 93.75,93.75 0 0 0 -26,10.83 3.2,3.2 0 0 0 1,5.86 53.56,53.56 0 1 1 -37.36,99.1 3.2,3.2 0 0 0 -4.76,2.58 q 1.06,3.84 2.45,7.58 z"
         id="path926"
         transform="translate(-11.68,-52.69)" /><path
         style="fill:#ffffff"
         class="cls-3"
         d="m 353.21,422.41 c -0.92,-0.15 -5.66,-0.27 -5.66,-0.27 -7.7,-0.93 -10,-19.08 -10.58,-25.61 a 59.64,59.64 0 0 0 11.82,-12.24 113.56,113.56 0 0 1 -95.09,0.63 59.55,59.55 0 0 0 11.37,11.61 c -0.58,6.53 -2.89,24.68 -10.59,25.61 0,0 -4.74,0.12 -5.65,0.27 -4.55,1 -7.83,4 -7.83,7.53 0,4.39 5.11,7.95 11.42,7.95 0,0 13.77,1.17 16.76,-1.35 2.99,-2.52 4.55,-4.73 4,-15.87 -0.55,-11.14 9.5,-14.18 9.82,-14.67 5.68,1.83 11.73,15.63 18,15.63 6.27,0 12.33,-13.8 18,-15.63 0.33,0.5 10.43,3.54 9.85,14.68 -0.58,11.14 1,13.35 4,15.87 3,2.52 16.77,1.35 16.77,1.35 6.3,0 11.41,-3.56 11.41,-7.95 -0.03,-3.52 -3.28,-6.5 -7.82,-7.54 z"
         id="path928"
         transform="translate(-11.68,-52.69)" /><path
         style="fill:#ffffff"
         class="cls-3"
         d="m 376.8,362.16 v 0 h -0.05 a 3.65,3.65 0 0 0 -0.54,-0.32 c -8.18,-5 -12.43,-10.24 -14.63,-14.15 a 100.89,100.89 0 0 1 -121.43,0.47 c -2.27,3.86 -6.5,8.9 -14.36,13.68 a 5.09,5.09 0 0 0 -0.54,0.32 h -0.05 v 0 a 8.71,8.71 0 1 0 13.08,9.6 c 0.76,-2.33 1.71,-5.55 3.08,-8.78 l 2.33,1.35 c 15.94,10 38.13,16.71 56.87,16.71 19.93,0 41.66,-7 58.09,-18.08 l 1.43,-1.23 a 88,88 0 0 1 3.65,10 8.71,8.71 0 1 0 13.07,-9.6 z"
         id="path930"
         transform="translate(-11.68,-52.69)" /></g><path
       style="fill:#ffffff"
       d="m 89.32989,202.98225 c -2.556405,-0.28904 -5.099684,-2.09878 -6.191949,-4.40606 -1.461202,-3.0866 -1.177693,-7.65363 0.653526,-10.52759 1.195622,-1.87644 3.462056,-3.43004 5.687487,-3.89868 3.061504,-0.64471 5.554276,0.10587 7.814514,2.35297 1.753178,1.74298 2.190025,2.86238 2.323005,5.95258 0.16033,3.72577 -0.535917,5.80234 -2.659985,7.93348 -2.086418,2.09337 -4.572249,2.93864 -7.626598,2.5933 z m 4.319589,-2.87592 c 1.755568,-1.08284 2.869602,-3.61368 2.858372,-6.49355 -0.0122,-3.11973 -1.298261,-5.811 -3.239172,-6.7782 -2.182926,-1.0878 -5.025782,-0.5062 -6.330667,1.29514 -1.084867,1.49762 -1.466595,2.82286 -1.482194,5.14574 -0.01599,2.38065 0.301224,3.60029 1.371568,5.2735 1.072634,1.6768 2.383389,2.31432 4.534946,2.20569 1.064554,-0.0537 1.543116,-0.1894 2.287147,-0.64832 z m -45.594452,2.3971 c -2.328987,-0.51852 -4.129229,-1.47764 -5.643146,-3.00651 -2.338439,-2.36154 -3.422718,-5.07276 -3.425804,-8.56615 -0.0022,-2.45003 0.266903,-3.71935 1.210405,-5.71006 2.298243,-4.84909 6.294308,-7.25237 12.131372,-7.29595 2.788569,-0.0208 4.636911,0.30748 4.495047,0.79839 -0.0528,0.18271 -0.156378,0.84681 -0.230173,1.47578 -0.0738,0.62896 -0.226802,1.14357 -0.340016,1.14357 -0.113213,0 -0.922279,-0.14517 -1.797925,-0.32259 -1.108186,-0.22455 -2.233689,-0.29617 -3.703043,-0.23563 -1.8697,0.077 -2.275107,0.16264 -3.547206,0.74899 -2.432719,1.12131 -4.246039,3.50425 -4.838587,6.35855 -0.329828,1.58877 -0.130679,4.62766 0.393068,5.99797 1.664815,4.35573 5.68231,6.79964 10.630459,6.46668 0.966743,-0.065 1.822821,-0.15851 1.902396,-0.20769 0.07957,-0.0492 0.08049,-0.7432 0.002,-1.54227 -0.07846,-0.79906 -0.190336,-2.77293 -0.248621,-4.38636 l -0.105972,-2.93352 1.627787,-6e-5 1.627787,-6e-5 -0.03871,5.32017 -0.03871,5.32017 -1.353473,0.36949 c -1.894523,0.51719 -6.792924,0.63367 -8.708978,0.20709 z m 21.247028,0.0477 c -2.656141,-0.6746 -4.735685,-2.39774 -5.913827,-4.90027 -0.524877,-1.11491 -0.619079,-1.5684 -0.684816,-3.29671 -0.04192,-1.10218 0.02943,-2.51289 0.158558,-3.1349 0.597938,-2.88026 2.832536,-5.81477 5.112442,-6.71374 0.939962,-0.37063 1.554485,-0.459 3.251463,-0.46755 1.978818,-0.01 2.16538,0.0254 3.435445,0.6506 1.014279,0.49933 1.535481,0.9161 2.129405,1.70275 1.130133,1.49685 1.425884,2.46501 1.540968,5.04447 l 0.09982,2.23743 -2.958544,6.1e-4 c -1.627199,3.4e-4 -4.502369,0.0592 -6.389267,0.13075 l -3.430723,0.13013 1.56e-4,0.61507 c 2.36e-4,0.9238 1.03482,2.89384 2.015242,3.83739 0.477619,0.45965 1.315884,1.04138 1.862811,1.29273 0.891525,0.40972 1.282498,0.45594 3.778768,0.44676 1.623434,-0.006 3.145148,-0.11508 3.649681,-0.26167 0.47593,-0.13829 0.910466,-0.2063 0.965636,-0.15113 0.05517,0.0552 0.03756,0.64095 -0.03913,1.30172 -0.135604,1.16838 -0.159423,1.20757 -0.866194,1.42511 -1.118878,0.34439 -6.493934,0.42131 -7.717899,0.11045 z m 3.880171,-10.9987 2.258857,-0.13015 -0.132148,-0.99618 c -0.177131,-1.33528 -0.597141,-2.28749 -1.353865,-3.06935 -0.713836,-0.73756 -1.595442,-1.03998 -3.031701,-1.03998 -2.83086,0 -4.418051,1.48372 -5.156872,4.82069 l -0.121093,0.54693 2.638983,-9.1e-4 c 1.45144,-4.9e-4 3.655468,-0.0595 4.897839,-0.13105 z m 40.500844,10.74262 c -3.39948,-0.72145 -6.24495,-2.8419 -7.66772,-5.71403 -1.85349,-3.74161 -1.78567,-8.59281 0.17272,-12.35473 0.95127,-1.82731 3.06739,-3.938 4.92878,-4.91613 3.06173,-1.6089 7.33523,-2.11999 10.27293,-1.22859 0.35325,0.10719 0.43724,0.62112 0.22859,1.3987 -0.11081,0.41295 -0.14294,0.41684 -1.14087,0.13796 -0.56476,-0.15783 -1.96656,-0.33794 -3.1151,-0.40025 -2.35528,-0.12777 -3.79162,0.14274 -5.72631,1.07848 -1.358,0.65681 -3.29906,2.55285 -4.073,3.97854 -1.70369,3.13836 -1.76263,8.14924 -0.138,11.73227 1.08571,2.39448 3.58441,4.31814 6.5563,5.04746 1.192,0.29252 5.80534,0.37332 6.98378,0.12232 l 0.71897,-0.15314 -0.069,-1.33848 c -0.038,-0.73616 -0.10441,-2.74806 -0.14765,-4.47088 l -0.0786,-3.1324 h 0.89293 0.89294 l -0.14456,4.92234 c -0.0795,2.70729 -0.16612,4.94669 -0.19246,4.97643 -0.0263,0.0298 -0.66496,0.18482 -1.41914,0.34459 -1.76659,0.37427 -5.9052,0.35797 -7.73549,-0.0305 z m 37.78769,0.14453 c -2.55987,-0.70427 -3.66693,-2.12009 -3.67496,-4.69995 -0.0123,-3.95937 2.90457,-5.84099 9.64144,-6.21948 l 2.38659,-0.13409 v -1.49162 c 0,-2.01152 -0.44578,-2.87285 -1.90424,-3.67932 -1.06308,-0.58785 -1.12156,-0.59649 -3.9628,-0.58563 -1.91542,0.007 -3.3012,0.11526 -4.12681,0.32142 l -1.24302,0.3104 v -0.53201 c 0,-0.97402 0.35225,-1.18129 2.58548,-1.52137 2.47339,-0.37665 5.38764,-0.27595 6.85445,0.23686 0.61437,0.21479 1.33597,0.69377 1.91001,1.26781 1.32174,1.32174 1.41559,1.88013 1.34096,7.97822 -0.034,2.77964 0.0133,5.837 0.10516,6.79412 l 0.16701,1.74022 h -0.69528 c -0.68218,0 -0.69782,-0.0185 -0.8301,-0.98033 l -0.13483,-0.98033 -0.87141,0.66516 c -1.40654,1.07363 -2.89316,1.54808 -5.06162,1.61541 -1.03916,0.0323 -2.15787,-0.0152 -2.48603,-0.10549 z m 5.66815,-1.69165 c 0.49224,-0.17889 1.32008,-0.63655 1.83967,-1.01701 l 0.94469,-0.69174 v -3.18019 -3.18019 l -1.24302,0.001 c -1.7259,0.002 -4.86885,0.5012 -6.10271,0.97003 -2.1281,0.80861 -3.18191,2.14855 -3.19068,4.05697 -0.008,1.68556 0.65544,2.70145 2.12046,3.24821 0.99143,0.37001 4.38709,0.24505 5.63159,-0.20725 z m 28.69132,1.57386 c -4.40212,-0.95639 -7.13121,-4.86436 -6.73406,-9.64299 0.33807,-4.06787 2.05349,-7.01118 4.84499,-8.31301 0.99569,-0.46434 1.39364,-0.53232 3.12957,-0.53463 1.77521,-0.002 2.10974,0.0567 3.11461,0.55021 1.35441,0.66513 2.42148,1.79555 3.10569,3.29006 0.39544,0.86375 0.52673,1.52691 0.59887,3.02491 l 0.0924,1.91864 -2.44287,0.13135 c -1.34358,0.0722 -4.35301,0.13135 -6.68762,0.13135 h -4.24475 v 0.87402 c 0,2.10674 1.31669,4.63035 3.14242,6.02288 1.77014,1.35013 5.38054,1.84979 8.55713,1.18427 1.23969,-0.25973 1.25657,-0.25747 1.14629,0.15331 -0.0616,0.2293 -0.11315,0.56042 -0.11464,0.73581 -0.006,0.70273 -5.0029,1.01808 -7.50802,0.47382 z m 6.51089,-11.39115 c 0,-1.99342 -1.03169,-4.24027 -2.34656,-5.1104 -1.40748,-0.93143 -4.1441,-1.06757 -5.65916,-0.28155 -0.97433,0.5055 -2.07593,1.57481 -2.58398,2.50826 -0.5734,1.05353 -1.20493,3.17966 -1.02902,3.4643 0.0589,0.0952 2.69714,0.17314 5.86286,0.17314 h 5.75586 z m -63.56959,10.34981 c 0.27602,-2.36736 0.3368,-8.38681 0.11898,-11.78379 -0.12976,-2.02363 -0.24837,-3.94074 -0.26358,-4.26023 -0.0253,-0.53084 0.0515,-0.60134 0.89047,-0.81787 l 0.91813,-0.23697 -0.0162,8.07709 c -0.009,4.44239 0.0533,8.50219 0.13819,9.02177 l 0.15437,0.94469 h -1.02526 -1.02526 z m 7.64585,-5.1708 c 0.0552,-5.47291 -0.0452,-7.6885 -0.48582,-10.71898 -0.1276,-0.87763 -0.19306,-0.80757 1.0922,-1.16891 0.32317,-0.0909 0.40016,0.0845 0.61111,1.39218 0.13274,0.82287 0.30197,1.495 0.37605,1.49362 0.0741,-0.001 0.55722,-0.48432 1.07362,-1.07319 1.14291,-1.3033 2.64326,-2.10771 3.92304,-2.10332 0.89103,0.003 3.10586,0.44031 3.32122,0.65568 0.0606,0.0606 0.003,0.43547 -0.12853,0.83314 -0.17137,0.51927 -0.32431,0.69017 -0.54263,0.60639 -2.87689,-1.10396 -5.6207,-0.36427 -6.96508,1.87768 l -0.64637,1.07791 v 6.62165 6.62164 l -0.84525,1.5e-4 -0.84525,1.5e-4 z m 32.62208,-1.93551 0.067,-8.05115 -2.20503,0.12616 -2.20503,0.12616 v -0.79107 -0.79106 l 2.18771,0.0901 c 1.76849,0.0729 2.18857,0.0376 2.19222,-0.18401 0.002,-0.15079 0.0889,-1.35889 0.19202,-2.68468 0.38762,-4.98295 1.78555,-6.57245 5.63841,-6.41108 0.92932,0.0389 1.73892,0.12007 1.79911,0.18033 0.0602,0.0602 0.0115,0.42864 -0.10818,0.81862 -0.21216,0.69129 -0.23569,0.70487 -0.93823,0.54156 -1.94514,-0.45216 -3.413,0.007 -4.12823,1.29228 -0.49607,0.8912 -0.86836,3.09048 -0.86836,5.12979 v 1.41187 l 2.78436,-0.10014 2.78435,-0.10013 v 0.79934 0.79934 l -2.80467,-0.12758 -2.80467,-0.12759 0.07,8.05199 0.07,8.05197 -0.89497,5e-5 -0.89497,5e-5 z m -40.0116,-13.9909 c -0.48998,-0.54142 -0.42248,-1.66698 0.13116,-2.1871 0.93042,-0.87409 1.92628,-0.30865 1.92628,1.09374 0,1.29914 -1.26354,1.97061 -2.05744,1.09336 z"
       id="path1"
       sodipodi:nodetypes="ssssssssscsssscscscsssssssssccccscccccsccssssscssscsccssscscssssccssssccccssssssssssssccscccscccccsscsssscsssssscsscscccsccccscsccssscsssccscssscssssssscscssscsccccccssssssscccsscccccsccccccsccssssssccccccccccccssss" /></g></svg>
